# Blender v2.90.0 OBJ File: 'test.blend'
# www.blender.org
mtllib cult.mtl
o Text
v 0.690500 0.000000 -0.201000
v 0.523500 0.000000 -0.038000
v 0.523500 0.000000 -0.028000
v 0.601500 0.000000 -0.028000
v 0.601500 0.000000 0.209000
v 0.617796 0.000000 0.281556
v 0.666537 0.000000 0.331444
v 0.747500 0.000000 0.350000
v 0.781500 0.000000 0.346000
v 0.820167 0.000000 0.335333
v 0.855500 0.000000 0.320000
v 0.855500 0.000000 0.237000
v 0.820426 0.000000 0.255333
v 0.786908 0.000000 0.266333
v 0.754500 0.000000 0.270000
v 0.726352 0.000000 0.264148
v 0.701315 0.000000 0.243185
v 0.690500 0.000000 0.202000
v 0.690500 0.000000 -0.028000
v 0.832500 0.000000 -0.028000
v 0.832500 0.000000 -0.108000
v 0.690500 0.000000 -0.108000
v 0.458500 0.000000 -0.341000
v 0.369500 0.000000 -0.341000
v 0.369500 0.000000 0.341000
v 0.458500 0.000000 0.341000
v 0.241500 0.000000 0.341000
v 0.241500 0.000000 -0.108000
v 0.152500 0.000000 -0.108000
v 0.152500 0.000000 0.213000
v 0.120759 0.000000 0.247556
v 0.084574 0.000000 0.268778
v 0.045500 0.000000 0.276000
v -0.005463 0.000000 0.264333
v -0.036204 0.000000 0.230667
v -0.046500 0.000000 0.177000
v -0.046500 0.000000 -0.108000
v -0.135500 0.000000 -0.108000
v -0.135500 0.000000 0.171000
v -0.115537 0.000000 0.268074
v -0.061130 0.000000 0.328926
v 0.019500 0.000000 0.350000
v 0.065315 0.000000 0.341778
v 0.111352 0.000000 0.318889
v 0.152500 0.000000 0.284000
v 0.152500 0.000000 0.341000
v -0.247500 0.000000 -0.294000
v -0.333944 0.000000 -0.325852
v -0.410389 0.000000 -0.344148
v -0.481500 0.000000 -0.350000
v -0.674907 0.000000 -0.302889
v -0.806759 0.000000 -0.175778
v -0.855500 0.000000 0.010000
v -0.816981 0.000000 0.161704
v -0.696685 0.000000 0.293630
v -0.487500 0.000000 0.350000
v -0.390796 0.000000 0.342222
v -0.310537 0.000000 0.321111
v -0.240500 0.000000 0.290000
v -0.240500 0.000000 0.183000
v -0.319315 0.000000 0.225185
v -0.399685 0.000000 0.251148
v -0.478500 0.000000 0.260000
v -0.622944 0.000000 0.226852
v -0.719389 0.000000 0.136148
v -0.754500 0.000000 0.001000
v -0.718648 0.000000 -0.133333
v -0.622352 0.000000 -0.225667
v -0.482500 0.000000 -0.260000
v -0.405130 0.000000 -0.252481
v -0.328204 0.000000 -0.229185
v -0.247500 0.000000 -0.189000
v 0.690500 -0.200000 -0.201000
v 0.523500 -0.200000 -0.038000
v 0.523500 -0.200000 -0.028000
v 0.601500 -0.200000 -0.028000
v 0.601500 -0.200000 0.209000
v 0.617796 -0.200000 0.281556
v 0.666537 -0.200000 0.331444
v 0.747500 -0.200000 0.350000
v 0.781500 -0.200000 0.346000
v 0.820167 -0.200000 0.335333
v 0.855500 -0.199994 0.320000
v 0.855500 -0.200000 0.237000
v 0.820426 -0.200000 0.255333
v 0.786908 -0.200000 0.266333
v 0.754500 -0.200000 0.270000
v 0.726352 -0.200000 0.264148
v 0.701315 -0.200000 0.243185
v 0.690500 -0.200000 0.202000
v 0.690500 -0.200000 -0.028000
v 0.832500 -0.200000 -0.028000
v 0.832500 -0.200000 -0.108000
v 0.690500 -0.200000 -0.108000
v 0.458500 -0.199994 -0.341000
v 0.369500 -0.200000 -0.341000
v 0.369500 -0.199994 0.341000
v 0.458500 -0.200000 0.341000
v 0.241500 -0.200000 0.341000
v 0.241500 -0.200000 -0.108000
v 0.152500 -0.200000 -0.108000
v 0.152500 -0.200000 0.213000
v 0.120759 -0.199994 0.247556
v 0.084574 -0.200000 0.268778
v 0.045500 -0.200000 0.276000
v -0.005463 -0.200000 0.264333
v -0.036204 -0.199994 0.230667
v -0.046500 -0.200000 0.177000
v -0.046500 -0.200000 -0.108000
v -0.135500 -0.200000 -0.108000
v -0.135500 -0.200000 0.171000
v -0.115537 -0.200000 0.268074
v -0.061130 -0.200000 0.328926
v 0.019500 -0.199994 0.350000
v 0.065315 -0.200000 0.341778
v 0.111352 -0.199994 0.318889
v 0.152500 -0.200000 0.284000
v 0.152500 -0.200000 0.341000
v -0.247500 -0.199994 -0.294000
v -0.333944 -0.199994 -0.325852
v -0.410389 -0.200000 -0.344148
v -0.481500 -0.200000 -0.350000
v -0.674907 -0.200000 -0.302889
v -0.806759 -0.200000 -0.175778
v -0.855500 -0.200000 0.010000
v -0.816981 -0.199994 0.161704
v -0.696685 -0.200000 0.293630
v -0.487500 -0.200000 0.350000
v -0.390796 -0.200000 0.342222
v -0.310537 -0.200000 0.321111
v -0.240500 -0.200000 0.290000
v -0.240500 -0.200000 0.183000
v -0.319315 -0.199994 0.225185
v -0.399685 -0.200000 0.251148
v -0.478500 -0.200000 0.260000
v -0.622944 -0.200000 0.226852
v -0.719389 -0.200000 0.136148
v -0.754500 -0.200000 0.001000
v -0.718648 -0.200000 -0.133333
v -0.622352 -0.200000 -0.225667
v -0.482500 -0.200000 -0.260000
v -0.405130 -0.200000 -0.252481
v -0.328204 -0.200000 -0.229185
v -0.247500 -0.200000 -0.189000
vt 0.047619 0.000000
vt 1.000000 0.000000
vt 0.000000 0.000000
vt 0.952381 0.000000
vt 0.904762 0.000000
vt 0.095238 0.000000
vt 0.142857 0.000000
vt 0.190476 0.000000
vt 0.857143 0.000000
vt 0.809524 0.000000
vt 0.761905 0.000000
vt 0.238095 0.000000
vt 0.571429 0.000000
vt 0.476190 0.000000
vt 0.523810 0.000000
vt 0.714286 0.000000
vt 0.619048 0.000000
vt 0.666667 0.000000
vt 0.285714 0.000000
vt 0.428571 0.000000
vt 0.333333 0.000000
vt 0.380952 0.000000
vt 0.666667 0.000000
vt 0.000000 0.000000
vt 0.333333 0.000000
vt 1.000000 0.000000
vt 0.631579 0.000000
vt 0.526316 0.000000
vt 0.578947 0.000000
vt 0.473684 0.000000
vt 0.157895 0.000000
vt 0.052632 0.000000
vt 0.105263 0.000000
vt 0.000000 0.000000
vt 0.684211 0.000000
vt 0.421053 0.000000
vt 0.210526 0.000000
vt 0.368421 0.000000
vt 0.263158 0.000000
vt 0.947368 0.000000
vt 0.315789 0.000000
vt 0.736842 0.000000
vt 0.894737 0.000000
vt 1.000000 0.000000
vt 0.842105 0.000000
vt 0.789474 0.000000
vt 0.160000 0.000000
vt 0.080000 0.000000
vt 0.120000 0.000000
vt 0.040000 0.000000
vt 0.000000 0.000000
vt 0.200000 0.000000
vt 0.840000 0.000000
vt 0.880000 0.000000
vt 0.920000 0.000000
vt 0.960000 0.000000
vt 1.000000 0.000000
vt 0.800000 0.000000
vt 0.240000 0.000000
vt 0.760000 0.000000
vt 0.720000 0.000000
vt 0.280000 0.000000
vt 0.680000 0.000000
vt 0.320000 0.000000
vt 0.560000 0.000000
vt 0.480000 0.000000
vt 0.520000 0.000000
vt 0.600000 0.000000
vt 0.640000 0.000000
vt 0.440000 0.000000
vt 0.360000 0.000000
vt 0.400000 0.000000
vt 0.047619 0.000000
vt 0.000000 0.000000
vt 1.000000 0.000000
vt 0.952381 0.000000
vt 0.904762 0.000000
vt 0.095238 0.000000
vt 0.142857 0.000000
vt 0.190476 0.000000
vt 0.857143 0.000000
vt 0.809524 0.000000
vt 0.761905 0.000000
vt 0.238095 0.000000
vt 0.571429 0.000000
vt 0.523810 0.000000
vt 0.476190 0.000000
vt 0.714286 0.000000
vt 0.619048 0.000000
vt 0.666667 0.000000
vt 0.285714 0.000000
vt 0.428571 0.000000
vt 0.333333 0.000000
vt 0.380952 0.000000
vt 0.666667 0.000000
vt 0.333333 0.000000
vt 0.000000 0.000000
vt 1.000000 0.000000
vt 0.631579 0.000000
vt 0.578947 0.000000
vt 0.526316 0.000000
vt 0.473684 0.000000
vt 0.157895 0.000000
vt 0.105263 0.000000
vt 0.052632 0.000000
vt 0.000000 0.000000
vt 0.684211 0.000000
vt 0.421053 0.000000
vt 0.210526 0.000000
vt 0.368421 0.000000
vt 0.263158 0.000000
vt 0.947368 0.000000
vt 0.315789 0.000000
vt 0.736842 0.000000
vt 0.894737 0.000000
vt 1.000000 0.000000
vt 0.842105 0.000000
vt 0.789474 0.000000
vt 0.160000 0.000000
vt 0.120000 0.000000
vt 0.080000 0.000000
vt 0.040000 0.000000
vt 0.000000 0.000000
vt 0.200000 0.000000
vt 0.840000 0.000000
vt 0.880000 0.000000
vt 0.920000 0.000000
vt 0.960000 0.000000
vt 1.000000 0.000000
vt 0.800000 0.000000
vt 0.240000 0.000000
vt 0.760000 0.000000
vt 0.720000 0.000000
vt 0.280000 0.000000
vt 0.680000 0.000000
vt 0.320000 0.000000
vt 0.560000 0.000000
vt 0.520000 0.000000
vt 0.480000 0.000000
vt 0.600000 0.000000
vt 0.640000 0.000000
vt 0.440000 0.000000
vt 0.360000 0.000000
vt 0.400000 0.000000
vn 0.0000 1.0000 0.0000
vn 0.0000 0.0000 1.0000
vn 0.0000 -1.0000 0.0000
vn 0.0000 0.0000 -1.0000
vn 0.0000 -1.0000 0.0001
vn 0.0000 -1.0000 -0.0004
vn 0.0001 -1.0000 0.0000
vn -0.0001 -1.0000 -0.0000
vn 0.0001 -1.0000 0.0001
vn -0.0001 -1.0000 0.0001
vn -0.0000 -1.0000 -0.0002
vn 0.0002 -1.0000 -0.0004
vn 0.0000 -1.0000 0.0002
vn -0.0000 -1.0000 0.0005
vn 0.0000 -1.0000 -0.0001
vn -0.6985 0.0000 -0.7156
vn 1.0000 0.0000 0.0000
vn -1.0000 0.0000 0.0000
vn 0.9672 0.0000 -0.2540
vn -0.9757 0.0000 0.2191
vn -0.4632 0.0000 -0.8862
vn 0.6420 0.0000 -0.7667
vn -0.3118 0.0000 -0.9501
vn 0.2035 0.0000 -0.9791
vn -0.1124 0.0000 -0.9937
vn -0.7153 0.0000 0.6988
vn 0.3981 0.0000 0.9173
vn -0.2234 0.0000 0.9747
vn 0.1168 0.0000 0.9932
vn 0.2659 0.0000 0.9640
vn -0.9795 0.0000 0.2014
vn 0.9821 0.0000 -0.1884
vn -0.7365 0.0000 -0.6765
vn 0.7385 0.0000 -0.6743
vn -0.5059 0.0000 -0.8626
vn 0.2232 0.0000 -0.9748
vn -0.7455 0.0000 0.6665
vn -0.1818 0.0000 -0.9833
vn 0.6467 0.0000 0.7627
vn 0.4452 0.0000 0.8954
vn -0.2529 0.0000 0.9675
vn 0.1766 0.0000 0.9843
vn -0.2367 0.0000 -0.9716
vn 0.0820 0.0000 -0.9966
vn 0.2328 0.0000 -0.9725
vn 0.3457 0.0000 -0.9383
vn -0.6940 0.0000 -0.7199
vn 0.2384 0.0000 0.9712
vn -0.0967 0.0000 0.9953
vn -0.2898 0.0000 0.9571
vn -0.4457 0.0000 0.8952
vn 0.6921 0.0000 0.7218
vn -0.9673 0.0000 -0.2538
vn 0.9662 0.0000 0.2579
vn 0.9679 0.0000 -0.2515
vn -0.9692 0.0000 0.2461
vn 0.6851 0.0000 -0.7285
vn -0.7389 0.0000 0.6738
vn -0.4719 0.0000 -0.8817
vn -0.3074 0.0000 -0.9516
vn 0.2237 0.0000 -0.9747
vn -0.1116 0.0000 -0.9938
vn 0.4060 0.0000 0.9139
vn -0.2602 0.0000 0.9656
vn 0.0802 0.0000 0.9968
vn 0.2544 0.0000 0.9671
usemtl None
s off
f 2/1/1 22/2/1 1/3/1
f 2/1/1 21/4/1 22/2/1
f 2/1/1 20/5/1 21/4/1
f 3/6/1 20/5/1 2/1/1
f 4/7/2 20/5/2 3/6/2
f 5/8/1 19/9/1 4/7/1
f 19/9/2 20/5/2 4/7/2
f 5/8/1 18/10/1 19/9/1
f 5/8/1 17/11/1 18/10/1
f 6/12/1 17/11/1 5/8/1
f 13/13/1 11/14/1 12/15/1
f 6/12/1 16/16/1 17/11/1
f 14/17/1 11/14/1 13/13/1
f 6/12/1 15/18/1 16/16/1
f 15/18/1 11/14/1 14/17/1
f 6/12/1 11/14/1 15/18/1
f 7/19/1 11/14/1 6/12/1
f 7/19/1 10/20/1 11/14/1
f 8/21/1 10/20/1 7/19/1
f 8/21/1 9/22/1 10/20/1
f 25/23/1 23/24/1 24/25/1
f 25/23/1 26/26/1 23/24/1
f 39/27/1 37/28/1 38/29/1
f 39/27/1 36/30/1 37/28/1
f 30/31/1 28/32/1 29/33/1
f 30/31/1 27/34/1 28/32/1
f 40/35/1 36/30/1 39/27/1
f 40/35/1 35/36/1 36/30/1
f 31/37/1 27/34/1 30/31/1
f 40/35/1 34/38/1 35/36/1
f 32/39/1 45/40/1 31/37/1
f 45/40/1 27/34/1 31/37/1
f 40/35/1 33/41/1 34/38/1
f 41/42/1 33/41/1 40/35/1
f 33/41/1 45/40/1 32/39/1
f 41/42/1 45/40/1 33/41/1
f 41/42/1 44/43/1 45/40/1
f 46/44/1 27/34/1 45/40/1
f 41/42/1 43/45/1 44/43/1
f 42/46/1 43/45/1 41/42/1
f 51/47/1 49/48/1 50/49/1
f 51/47/1 48/50/1 49/48/1
f 51/47/1 47/51/1 48/50/1
f 52/52/1 68/53/1 51/47/1
f 68/53/1 69/54/1 51/47/1
f 69/54/1 47/51/1 51/47/1
f 69/54/1 70/55/1 47/51/1
f 70/55/1 71/56/1 47/51/1
f 71/56/1 72/57/1 47/51/1
f 52/52/1 67/58/1 68/53/1
f 53/59/1 67/58/1 52/52/1
f 53/59/1 66/60/1 67/58/1
f 53/59/1 65/61/1 66/60/1
f 54/62/1 65/61/1 53/59/1
f 54/62/1 64/63/1 65/61/1
f 55/64/1 64/63/1 54/62/1
f 61/65/1 59/66/1 60/67/1
f 62/68/1 59/66/1 61/65/1
f 55/64/1 63/69/1 64/63/1
f 63/69/1 59/66/1 62/68/1
f 55/64/1 59/66/1 63/69/1
f 55/64/1 58/70/1 59/66/1
f 56/71/1 58/70/1 55/64/1
f 56/71/1 57/72/1 58/70/1
f 74/73/3 73/74/3 94/75/3
f 74/73/3 94/75/3 93/76/3
f 74/73/3 93/76/3 92/77/3
f 75/78/3 74/73/3 92/77/3
f 76/79/4 75/78/4 92/77/4
f 77/80/3 76/79/3 91/81/3
f 91/81/2 76/79/2 92/77/2
f 77/80/3 91/81/3 90/82/3
f 77/80/3 90/82/3 89/83/3
f 78/84/3 77/80/3 89/83/3
f 85/85/5 84/86/5 83/87/5
f 78/84/3 89/83/3 88/88/3
f 86/89/5 85/85/5 83/87/5
f 78/84/3 88/88/3 87/90/3
f 87/90/5 86/89/5 83/87/5
f 78/84/5 87/90/5 83/87/5
f 79/91/3 78/84/3 83/87/3
f 79/91/6 83/87/6 82/92/6
f 80/93/3 79/91/3 82/92/3
f 80/93/3 82/92/3 81/94/3
f 97/95/7 96/96/7 95/97/7
f 97/95/8 95/97/8 98/98/8
f 111/99/3 110/100/3 109/101/3
f 111/99/3 109/101/3 108/102/3
f 102/103/3 101/104/3 100/105/3
f 102/103/3 100/105/3 99/106/3
f 112/107/3 111/99/3 108/102/3
f 112/107/9 108/102/9 107/108/9
f 103/109/10 102/103/10 99/106/10
f 112/107/11 107/108/11 106/110/11
f 104/111/11 103/109/11 117/112/11
f 117/112/12 103/109/12 99/106/12
f 112/107/3 106/110/3 105/113/3
f 113/114/3 112/107/3 105/113/3
f 105/113/3 104/111/3 117/112/3
f 113/114/3 105/113/3 117/112/3
f 113/114/13 117/112/13 116/115/13
f 118/116/3 117/112/3 99/106/3
f 113/114/11 116/115/11 115/117/11
f 114/118/14 113/114/14 115/117/14
f 123/119/3 122/120/3 121/121/3
f 123/119/13 121/121/13 120/122/13
f 123/119/3 120/122/3 119/123/3
f 124/124/3 123/119/3 140/125/3
f 140/125/3 123/119/3 141/126/3
f 141/126/15 123/119/15 119/123/15
f 141/126/15 119/123/15 142/127/15
f 142/127/15 119/123/15 143/128/15
f 143/128/15 119/123/15 144/129/15
f 124/124/3 140/125/3 139/130/3
f 125/131/3 124/124/3 139/130/3
f 125/131/3 139/130/3 138/132/3
f 125/131/3 138/132/3 137/133/3
f 126/134/5 125/131/5 137/133/5
f 126/134/5 137/133/5 136/135/5
f 127/136/3 126/134/3 136/135/3
f 133/137/8 132/138/8 131/139/8
f 134/140/15 133/137/15 131/139/15
f 127/136/3 136/135/3 135/141/3
f 135/141/3 134/140/3 131/139/3
f 127/136/3 135/141/3 131/139/3
f 127/136/3 131/139/3 130/142/3
f 128/143/3 127/136/3 130/142/3
f 128/143/3 130/142/3 129/144/3
f 1/3/16 74/73/16 2/1/16
f 22/2/17 73/74/17 1/3/17
f 21/4/4 94/75/4 22/2/4
f 20/5/17 93/76/17 21/4/17
f 2/1/18 75/78/18 3/6/18
f 3/6/2 76/79/2 4/7/2
f 4/7/18 77/80/18 5/8/18
f 19/9/2 92/77/2 20/5/2
f 18/10/17 91/81/17 19/9/17
f 17/11/19 90/82/19 18/10/19
f 5/8/20 78/84/20 6/12/20
f 12/15/21 85/85/21 13/13/21
f 12/15/17 83/87/17 84/86/17
f 16/16/22 89/83/22 17/11/22
f 13/13/23 86/89/23 14/17/23
f 15/18/24 88/88/24 16/16/24
f 14/17/25 87/90/25 15/18/25
f 6/12/26 79/91/26 7/19/26
f 10/20/27 83/87/27 11/14/27
f 7/19/28 80/93/28 8/21/28
f 8/21/29 81/94/29 9/22/29
f 9/22/30 82/92/30 10/20/30
f 24/25/18 97/95/18 25/23/18
f 24/25/4 95/97/4 96/96/4
f 26/26/2 97/95/2 98/98/2
f 26/26/17 95/97/17 23/24/17
f 38/29/18 111/99/18 39/27/18
f 37/28/4 110/100/4 38/29/4
f 36/30/17 109/101/17 37/28/17
f 29/33/18 102/103/18 30/31/18
f 28/32/4 101/104/4 29/33/4
f 27/34/17 100/105/17 28/32/17
f 39/27/31 112/107/31 40/35/31
f 36/30/32 107/108/32 108/102/32
f 30/31/33 103/109/33 31/37/33
f 34/38/34 107/108/34 35/36/34
f 32/39/35 103/109/35 104/111/35
f 33/41/36 106/110/36 34/38/36
f 40/35/37 113/114/37 41/42/37
f 32/39/38 105/113/38 33/41/38
f 45/40/39 116/115/39 117/112/39
f 45/40/18 118/116/18 46/44/18
f 46/44/2 99/106/2 27/34/2
f 43/45/40 116/115/40 44/43/40
f 41/42/41 114/118/41 42/46/41
f 43/45/42 114/118/42 115/117/42
f 50/49/43 123/119/43 51/47/43
f 49/48/44 122/120/44 50/49/44
f 49/48/45 120/122/45 121/121/45
f 47/51/46 120/122/46 48/50/46
f 51/47/47 124/124/47 52/52/47
f 68/53/48 141/126/48 69/54/48
f 69/54/49 142/127/49 70/55/49
f 70/55/50 143/128/50 71/56/50
f 71/56/51 144/129/51 72/57/51
f 72/57/17 119/123/17 47/51/17
f 67/58/52 140/125/52 68/53/52
f 52/52/53 125/131/53 53/59/53
f 66/60/54 139/130/54 67/58/54
f 65/61/55 138/132/55 66/60/55
f 53/59/56 126/134/56 54/62/56
f 64/63/57 137/133/57 65/61/57
f 55/64/58 126/134/58 127/136/58
f 60/67/59 133/137/59 61/65/59
f 59/66/17 132/138/17 60/67/17
f 62/68/60 133/137/60 134/140/60
f 63/69/61 136/135/61 64/63/61
f 62/68/62 135/141/62 63/69/62
f 58/70/63 131/139/63 59/66/63
f 55/64/64 128/143/64 56/71/64
f 56/71/65 129/144/65 57/72/65
f 57/72/66 130/142/66 58/70/66
f 1/3/16 73/74/16 74/73/16
f 22/2/17 94/75/17 73/74/17
f 21/4/4 93/76/4 94/75/4
f 20/5/17 92/77/17 93/76/17
f 2/1/18 74/73/18 75/78/18
f 3/6/2 75/78/2 76/79/2
f 4/7/18 76/79/18 77/80/18
f 19/9/2 91/81/2 92/77/2
f 18/10/17 90/82/17 91/81/17
f 17/11/19 89/83/19 90/82/19
f 5/8/20 77/80/20 78/84/20
f 12/15/21 84/86/21 85/85/21
f 12/15/17 11/14/17 83/87/17
f 16/16/22 88/88/22 89/83/22
f 13/13/23 85/85/23 86/89/23
f 15/18/24 87/90/24 88/88/24
f 14/17/25 86/89/25 87/90/25
f 6/12/26 78/84/26 79/91/26
f 10/20/27 82/92/27 83/87/27
f 7/19/28 79/91/28 80/93/28
f 8/21/29 80/93/29 81/94/29
f 9/22/30 81/94/30 82/92/30
f 24/25/18 96/96/18 97/95/18
f 24/25/4 23/24/4 95/97/4
f 26/26/2 25/23/2 97/95/2
f 26/26/17 98/98/17 95/97/17
f 38/29/18 110/100/18 111/99/18
f 37/28/4 109/101/4 110/100/4
f 36/30/17 108/102/17 109/101/17
f 29/33/18 101/104/18 102/103/18
f 28/32/4 100/105/4 101/104/4
f 27/34/17 99/106/17 100/105/17
f 39/27/31 111/99/31 112/107/31
f 36/30/32 35/36/32 107/108/32
f 30/31/33 102/103/33 103/109/33
f 34/38/34 106/110/34 107/108/34
f 32/39/35 31/37/35 103/109/35
f 33/41/36 105/113/36 106/110/36
f 40/35/37 112/107/37 113/114/37
f 32/39/38 104/111/38 105/113/38
f 45/40/39 44/43/39 116/115/39
f 45/40/18 117/112/18 118/116/18
f 46/44/2 118/116/2 99/106/2
f 43/45/40 115/117/40 116/115/40
f 41/42/41 113/114/41 114/118/41
f 43/45/42 42/46/42 114/118/42
f 50/49/43 122/120/43 123/119/43
f 49/48/44 121/121/44 122/120/44
f 49/48/45 48/50/45 120/122/45
f 47/51/46 119/123/46 120/122/46
f 51/47/47 123/119/47 124/124/47
f 68/53/48 140/125/48 141/126/48
f 69/54/49 141/126/49 142/127/49
f 70/55/50 142/127/50 143/128/50
f 71/56/51 143/128/51 144/129/51
f 72/57/17 144/129/17 119/123/17
f 67/58/52 139/130/52 140/125/52
f 52/52/53 124/124/53 125/131/53
f 66/60/54 138/132/54 139/130/54
f 65/61/55 137/133/55 138/132/55
f 53/59/56 125/131/56 126/134/56
f 64/63/57 136/135/57 137/133/57
f 55/64/58 54/62/58 126/134/58
f 60/67/59 132/138/59 133/137/59
f 59/66/17 131/139/17 132/138/17
f 62/68/60 61/65/60 133/137/60
f 63/69/61 135/141/61 136/135/61
f 62/68/62 134/140/62 135/141/62
f 58/70/63 130/142/63 131/139/63
f 55/64/64 127/136/64 128/143/64
f 56/71/65 128/143/65 129/144/65
f 57/72/66 129/144/66 130/142/66
